<?xml version="1.0" encoding="utf-8"?>
<!-- Generator: Adobe Illustrator 25.2.0, SVG Export Plug-In . SVG Version: 6.00 Build 0)  -->
<svg version="1.1" id="Layer_1" xmlns="http://www.w3.org/2000/svg" xmlns:xlink="http://www.w3.org/1999/xlink" x="0px" y="0px"
	 viewBox="0 0 32 32" style="enable-background:new 0 0 32 32;" xml:space="preserve">
<style type="text/css">
	.st0{fill:#D19D1E;}
</style>
<path class="st0" d="M26.5,10.5l-7-7c-0.1-0.1-0.3-0.2-0.5-0.2H7C6,3.2,5.2,4,5.2,5v22c0,1,0.8,1.8,1.8,1.8l0,0h18
	c1,0,1.8-0.8,1.8-1.8l0,0V11C26.7,10.8,26.7,10.6,26.5,10.5z M19.8,5.8l4.4,4.4h-4.4V5.8z M25,27.2H13.8v-2.5H15
	c0.4,0,0.8-0.3,0.8-0.8s-0.3-0.8-0.8-0.8h-1.2v-2.5H15c0.4,0,0.8-0.3,0.8-0.8s-0.3-0.8-0.8-0.8h-1.2v-2.5H15c0.4,0,0.8-0.3,0.8-0.8
	s-0.3-0.8-0.8-0.8h-1.2V14c0-0.4-0.3-0.8-0.8-0.8s-0.8,0.3-0.8,0.8v1.2H11c-0.4,0-0.8,0.3-0.8,0.8s0.3,0.8,0.8,0.8h1.2v2.5H11
	c-0.4,0-0.8,0.3-0.8,0.8s0.3,0.8,0.8,0.8h1.2v2.5H11c-0.4,0-0.8,0.3-0.8,0.8s0.3,0.8,0.8,0.8h1.2v2.5H7c-0.1,0-0.2-0.1-0.2-0.2V5
	c0-0.1,0.1-0.2,0.2-0.2h11.2V11c0,0.4,0.3,0.8,0.8,0.8h6.2V27C25.2,27.1,25.1,27.2,25,27.2z"/>
</svg>
