<?xml version="1.0" encoding="utf-8"?>
<!-- Generator: Adobe Illustrator 25.2.0, SVG Export Plug-In . SVG Version: 6.00 Build 0)  -->
<svg version="1.1" id="Layer_1" xmlns="http://www.w3.org/2000/svg" xmlns:xlink="http://www.w3.org/1999/xlink" x="0px" y="0px"
	 viewBox="0 0 32 32" style="enable-background:new 0 0 32 32;" xml:space="preserve">
<style type="text/css">
	.st0{fill:#1ED760;}
</style>
<path class="st0" d="M12.3,16.3c-0.3-0.1-0.6-0.1-0.8,0.2l-2.8,2.8H6c-0.4,0-0.8,0.3-0.8,0.8v5c0,0.4,0.3,0.8,0.8,0.8h2.7l2.8,2.8
	c0.3,0.3,0.8,0.3,1.1,0c0.1-0.1,0.2-0.3,0.2-0.5V17C12.7,16.7,12.6,16.4,12.3,16.3z M11.2,26.2l-1.7-1.7c-0.1-0.1-0.3-0.2-0.5-0.2
	H6.8v-3.5H9c0.2,0,0.4-0.1,0.5-0.2l1.7-1.7V26.2z M18.8,22.5c0,1.7-0.9,3.3-2.4,4.1c-0.4,0.2-0.8,0-1-0.3c-0.2-0.3-0.1-0.7,0.3-1
	c1.6-0.9,2.1-3,1.2-4.5c-0.3-0.5-0.7-0.9-1.2-1.2c-0.3-0.2-0.4-0.7-0.2-1c0.2-0.3,0.6-0.4,1-0.3C17.8,19.2,18.7,20.8,18.8,22.5z
	 M26.5,10.5l-7-7c-0.1-0.1-0.3-0.2-0.5-0.2H7C6,3.2,5.2,4,5.2,5v10c0,0.4,0.3,0.8,0.8,0.8s0.8-0.3,0.8-0.8V5c0-0.1,0.1-0.2,0.2-0.2
	h11.2V11c0,0.4,0.3,0.8,0.8,0.8h6.2V27c0,0.1-0.1,0.2-0.2,0.2h-4c-0.4,0-0.8,0.3-0.8,0.8s0.3,0.8,0.8,0.8h4c1,0,1.8-0.8,1.8-1.8l0,0
	V11C26.7,10.8,26.7,10.6,26.5,10.5z M19.8,5.8l4.4,4.4h-4.4V5.8z"/>
</svg>
