<?xml version="1.0" encoding="utf-8"?>
<!-- Generator: Adobe Illustrator 25.2.0, SVG Export Plug-In . SVG Version: 6.00 Build 0)  -->
<svg version="1.1" id="Layer_1" xmlns="http://www.w3.org/2000/svg" xmlns:xlink="http://www.w3.org/1999/xlink" x="0px" y="0px"
	 viewBox="0 0 32 32" style="enable-background:new 0 0 32 32;" xml:space="preserve">
<style type="text/css">
	.st0{fill:#185ABC;}
</style>
<path class="st0" d="M6.5,18.2h-2c-0.4,0-0.8,0.3-0.8,0.8v7c0,0.4,0.3,0.8,0.8,0.8h2c2.3,0,4.2-1.9,4.2-4.2S8.8,18.2,6.5,18.2z
	 M6.5,25.2H5.2v-5.5h1.2c1.5,0,2.8,1.2,2.8,2.8S8,25.2,6.5,25.2L6.5,25.2z M27.5,24.6c0.3,0.3,0.3,0.8,0,1.1
	c-0.7,0.7-1.6,1.1-2.5,1.1c-2.1,0-3.8-1.9-3.8-4.2s1.7-4.2,3.8-4.2c1,0,1.9,0.4,2.5,1.1c0.3,0.3,0.3,0.8-0.1,1.1
	c-0.3,0.3-0.7,0.3-1,0c-0.4-0.4-0.9-0.7-1.5-0.7c-1.2,0-2.2,1.2-2.2,2.8s1,2.8,2.2,2.8c0.6,0,1.1-0.2,1.5-0.7
	C26.7,24.3,27.2,24.3,27.5,24.6z M16,18.2c-2.1,0-3.8,1.9-3.8,4.2s1.7,4.2,3.8,4.2s3.8-1.9,3.8-4.2S18.1,18.2,16,18.2z M16,25.2
	c-1.2,0-2.2-1.2-2.2-2.8s1-2.8,2.2-2.8s2.2,1.2,2.2,2.8S17.2,25.2,16,25.2z M6,14.8c0.4,0,0.8-0.3,0.8-0.8V5c0-0.1,0.1-0.2,0.2-0.2
	h11.2V11c0,0.4,0.3,0.8,0.8,0.8h6.2V14c0,0.4,0.3,0.8,0.8,0.8s0.8-0.3,0.8-0.8v-3c0-0.2-0.1-0.4-0.2-0.5l-7-7
	c-0.1-0.1-0.3-0.2-0.5-0.2H7C6,3.2,5.2,4,5.2,5v9C5.2,14.4,5.6,14.8,6,14.8z M19.8,5.8l4.4,4.4h-4.4V5.8z"/>
</svg>
