<?xml version="1.0" encoding="utf-8"?>
<!-- Generator: Adobe Illustrator 25.2.0, SVG Export Plug-In . SVG Version: 6.00 Build 0)  -->
<svg version="1.1" id="Layer_1" xmlns="http://www.w3.org/2000/svg" xmlns:xlink="http://www.w3.org/1999/xlink" x="0px" y="0px"
	 viewBox="0 0 32 32" style="enable-background:new 0 0 32 32;" xml:space="preserve">
<style type="text/css">
	.st0{fill:#049296;}
</style>
<path class="st0" d="M13.6,18.6c-0.2-0.3-0.7-0.4-1-0.2c-0.1,0.1-0.2,0.1-0.2,0.2l-2.8,4.2l-1.4-2.2c-0.2-0.3-0.7-0.4-1-0.2
	c-0.1,0.1-0.2,0.1-0.2,0.2l-4.5,7c-0.2,0.3-0.1,0.8,0.2,1c0.1,0.1,0.3,0.1,0.4,0.1h16c0.4,0,0.8-0.3,0.8-0.7c0-0.1,0-0.3-0.1-0.4
	L13.6,18.6z M4.4,27.2l3.1-4.9l1.4,2.2c0.2,0.3,0.7,0.4,1,0.2c0.1-0.1,0.2-0.1,0.2-0.2l2.8-4.2l4.6,6.9H4.4z M26.5,10.5l-7-7
	c-0.1-0.1-0.3-0.2-0.5-0.2H7C6,3.2,5.2,4,5.2,5v11c0,0.4,0.3,0.8,0.8,0.8s0.8-0.3,0.8-0.8V5c0-0.1,0.1-0.2,0.2-0.2h11.2V11
	c0,0.4,0.3,0.8,0.8,0.8h6.2V27c0,0.1-0.1,0.2-0.2,0.2h-1c-0.4,0-0.8,0.3-0.8,0.8s0.3,0.8,0.8,0.8h1c1,0,1.8-0.8,1.8-1.8l0,0V11
	C26.7,10.8,26.7,10.6,26.5,10.5z M19.8,5.8l4.4,4.4h-4.4V5.8z"/>
</svg>
