<?xml version="1.0" encoding="utf-8"?>
<!-- Generator: Adobe Illustrator 25.2.0, SVG Export Plug-In . SVG Version: 6.00 Build 0)  -->
<svg version="1.1" id="Layer_1" xmlns="http://www.w3.org/2000/svg" xmlns:xlink="http://www.w3.org/1999/xlink" x="0px" y="0px"
	 viewBox="0 0 32 32" style="enable-background:new 0 0 32 32;" xml:space="preserve">
<style type="text/css">
	.st0{fill:#C43E1C;}
</style>
<path class="st0" d="M27.8,19c0,0.4-0.3,0.8-0.8,0.8h-1.8V26c0,0.4-0.3,0.8-0.8,0.8s-0.8-0.3-0.8-0.8v-6.2H22
	c-0.4,0-0.8-0.3-0.8-0.8s0.3-0.8,0.8-0.8h5C27.4,18.2,27.8,18.6,27.8,19z M11.2,21.5c0,1.8-1.5,3.2-3.2,3.2H6.8V26
	c0,0.4-0.3,0.8-0.8,0.8S5.2,26.4,5.2,26v-7c0-0.4,0.3-0.8,0.8-0.8h2C9.8,18.2,11.2,19.7,11.2,21.5z M9.8,21.5c0-1-0.8-1.8-1.8-1.8
	H6.8v3.5H8C9,23.2,9.8,22.5,9.8,21.5L9.8,21.5z M19.8,21.5c0,1.8-1.5,3.2-3.2,3.2h-1.2V26c0,0.4-0.3,0.8-0.8,0.8s-0.8-0.3-0.8-0.8
	v-7c0-0.4,0.3-0.8,0.8-0.8h2C18.3,18.2,19.8,19.7,19.8,21.5z M18.2,21.5c0-1-0.8-1.8-1.8-1.8h-1.2v3.5h1.2
	C17.5,23.2,18.2,22.5,18.2,21.5L18.2,21.5z M5.2,14V5C5.2,4,6,3.2,7,3.2h12c0.2,0,0.4,0.1,0.5,0.2l7,7c0.1,0.1,0.2,0.3,0.2,0.5v3
	c0,0.4-0.3,0.8-0.8,0.8s-0.8-0.3-0.8-0.8v-2.2H19c-0.4,0-0.8-0.3-0.8-0.8V4.8H7C6.9,4.8,6.8,4.9,6.8,5v9c0,0.4-0.3,0.8-0.8,0.8
	S5.2,14.4,5.2,14z M19.8,10.2h4.4l-4.4-4.4V10.2z"/>
</svg>
