<?xml version="1.0" encoding="utf-8"?>
<!-- Generator: Adobe Illustrator 25.2.0, SVG Export Plug-In . SVG Version: 6.00 Build 0)  -->
<svg version="1.1" id="Layer_1" xmlns="http://www.w3.org/2000/svg" xmlns:xlink="http://www.w3.org/1999/xlink" x="0px" y="0px"
	 viewBox="0 0 32 32" style="enable-background:new 0 0 32 32;" xml:space="preserve">
<style type="text/css">
	.st0{fill:#FF0033;}
</style>
<path class="st0" d="M26.5,10.5l-7-7c-0.1-0.1-0.3-0.2-0.5-0.2H7C6,3.2,5.2,4,5.2,5v9c0,0.4,0.3,0.8,0.8,0.8s0.8-0.3,0.8-0.8V5
	c0-0.1,0.1-0.2,0.2-0.2h11.2V11c0,0.4,0.3,0.8,0.8,0.8h6.2V27c0,0.1-0.1,0.2-0.2,0.2h-1c-0.4,0-0.8,0.3-0.8,0.8s0.3,0.8,0.8,0.8h1
	c1,0,1.8-0.8,1.8-1.8l0,0V11C26.7,10.8,26.7,10.6,26.5,10.5z M19.8,5.8l4.4,4.4h-4.4V5.8z M19.4,18.3c-0.2-0.1-0.5-0.1-0.8,0
	l-2.9,1.8V20c0-1-0.8-1.8-1.8-1.8H6c-1,0-1.8,0.8-1.8,1.8v6c0,1,0.8,1.8,1.8,1.8h8c1,0,1.8-0.8,1.8-1.8v-0.1l2.9,1.8
	c0.4,0.2,0.8,0.1,1-0.2c0.1-0.1,0.1-0.3,0.1-0.4v-8C19.8,18.7,19.6,18.5,19.4,18.3z M14.2,26c0,0.1-0.1,0.2-0.2,0.2H6
	c-0.1,0-0.2-0.1-0.2-0.2v-6c0-0.1,0.1-0.2,0.2-0.2h8c0.1,0,0.2,0.1,0.2,0.2V26z M18.2,25.6l-2.5-1.6v-2.2l2.5-1.6V25.6z"/>
</svg>
