<?xml version="1.0" encoding="UTF-8"?>
<svg id="Layer_1" data-name="Layer 1" xmlns="http://www.w3.org/2000/svg" version="1.1" viewBox="0 0 74.9000015 70.8149291">
  <defs>
    <style>
      .cls-1 {
        fill: #1569ef;
        stroke-width: 0px;
      }
    </style>
  </defs>
  <path class="cls-1" d="M73.556159,52.0832396c-5.4824456-6.2819699-8.1094503-15.6478168-8.1094503-28.8970607v-6.8530581c0-4.4544873-3.6549652-8.2236695-8.2236706-8.2236695h-8.2236706V0h-5.4824456v20.4449562h5.4824456v-6.8530581h8.2236706c1.4848284,0,2.741225,1.2563944,2.741225,2.7412228v6.8530581c0,13.8203364,2.741225,24.0999235,8.4521067,31.2956293H17.7037339c-1.1421763,0-2.1701346-.4568723-2.9696589-1.2563922-6.1677524-6.167754-9.2516288-16.1046847-9.2516288-30.1534551v-6.8530581c0-1.4848295,1.2563939-2.7412228,2.7412233-2.7412228h2.7412233v-5.4824467h-2.7412233C3.7691816,7.9952333,0,11.6501974,0,16.2189028v46.3723557c0,4.4544895,3.6549644,8.2236706,8.2236695,8.2236706h49.1135845c4.4544895,0,8.2236706-3.6549652,8.2236706-8.2236706v-2.741225h4.5687054c1.9417007,0,3.5407449-1.0279605,4.3402736-2.741225.79952-1.7132645.4568723-3.6549652-.79952-5.0255777l-.1142246.0000087ZM59.9642587,62.7054831c0,1.4848284-1.2563922,2.741225-2.741225,2.741225H8.22367c-1.4848295,0-2.7412233-1.2563922-2.7412233-2.741225v-12.7923759c1.4848289,2.741225,3.3123115,5.1397936,5.3682292,7.3099304,1.8274826,1.8274804,4.2260523,2.741225,6.8530581,2.741225h42.2605248s0,2.741225,0,2.7412206Z"/>
  <polygon class="cls-1" points="23.1861795 13.5918981 36.7780798 13.5918981 36.7780798 8.2236695 23.1861795 8.2236695 23.1861795 0 17.7037339 0 17.7037339 20.4449562 23.1861795 20.4449562 23.1861795 13.5918981"/>
  <path class="cls-1" d="M34.607943,43.6311373c7.6525824,0,14.3914246-4.2260534,17.8179536-11.0791114l-4.9113574-2.3985708c-2.3985686,4.9113596-7.4241463,7.9952366-12.9065918,7.9952366s-10.5080233-3.083877-12.9065918-7.9952344l-4.9113585,2.3985708c3.4265301,6.8530559,10.165368,11.0791093,17.817946,11.0791093Z"/>
</svg>