<?xml version="1.0" encoding="UTF-8"?>
<svg id="Isolation_Mode" xmlns="http://www.w3.org/2000/svg" version="1.1" viewBox="0 0 1920 1080">
  <!-- Generator: Adobe Illustrator 29.6.1, SVG Export Plug-In . SVG Version: 2.1.1 Build 9)  -->
  <g>
    <path d="M716.157,390.461c0-78.717-64.631-143.25-143.469-143.25-54.334,0-103.37,30.996-127.639,78.11l33.235,33.235c13.447-39.181,50.864-67.695,94.404-67.695,54.703,0,99.747,44.97,99.747,99.6v162.245l43.723,43.723v-205.968Z" fill="#0068ff" fill-rule="evenodd"/>
    <path d="M250.669,571.944c0,78.717,64.631,143.25,143.469,143.25,54.334,0,103.37-30.996,127.639-78.11l-33.235-33.235c-13.447,39.181-50.864,67.695-94.404,67.695-54.703,0-99.747-44.97-99.747-99.6v-162.245s-43.723-43.723-43.723-43.723v205.968Z" fill="#0068ff" fill-rule="evenodd"/>
    <rect x="405.171" y="211.938" width="156.181" height="538.897" rx="77.483" ry="77.483" transform="translate(-198.847 482.713) rotate(-45)" fill="none" stroke="#0068ff" stroke-miterlimit="10" stroke-width="42"/>
  </g>
  <g>
    <g>
      <path d="M933.625,525.138l-2.248-169.494h18.775v192.499h-22.74l-105.637-169.759,2.116,169.759h-18.642v-192.499h22.74l105.636,169.494Z" fill="#141414"/>
      <path d="M1126.123,481.376h-131.285c1.145,15.826,6.875,28.619,17.188,38.378,10.312,9.759,23.181,14.638,38.605,14.638,10.929,0,20.757-2.83,29.483-8.492,8.726-5.661,15.469-13.54,20.228-23.635h21.154c-6.699,16.088-16.109,28.439-28.228,37.054-12.119,8.615-26.156,12.922-42.108,12.922-21.154,0-39.048-7.536-53.678-22.609-14.632-15.072-21.947-33.185-21.947-54.338,0-22.123,7.16-40.411,21.484-54.867,14.322-14.455,32.634-21.683,54.934-21.683,21.858,0,39.684,7.523,53.479,22.567,13.793,15.043,20.69,34.61,20.69,58.697v1.368ZM1105.498,465.114c-3.526-16.175-10.004-28.349-19.435-36.523-9.433-8.174-21.728-12.263-36.887-12.263-14.104,0-26.046,4.394-35.829,13.18-9.783,8.788-15.778,20.656-17.98,35.606h110.131Z" fill="#141414"/>
      <path d="M1155.342,402.71l33.846,55,36.226-55h21.418l-47.066,69.675,46.803,75.757h-21.154l-37.283-60.685-39.002,60.685h-20.625l49.314-75.493-43.365-69.939h20.89Z" fill="#141414"/>
      <path d="M1259.921,356.172h18.642v148.737c0,12.252,1.233,19.679,3.702,22.278,2.467,2.601,7.183,3.9,14.146,3.9v17.32h-3.967c-11.898,0-20.294-3.306-25.186-9.917-4.892-6.61-7.338-18.729-7.338-36.358v-145.96Z" fill="#141414"/>
      <path d="M1462.07,481.376h-131.285c1.145,15.826,6.875,28.619,17.188,38.378,10.312,9.759,23.181,14.638,38.605,14.638,10.929,0,20.757-2.83,29.483-8.492,8.726-5.661,15.469-13.54,20.228-23.635h21.154c-6.699,16.088-16.109,28.439-28.228,37.054-12.119,8.615-26.156,12.922-42.108,12.922-21.154,0-39.048-7.536-53.678-22.609-14.632-15.072-21.947-33.185-21.947-54.338,0-22.123,7.16-40.411,21.484-54.867,14.322-14.455,32.634-21.683,54.934-21.683,21.858,0,39.684,7.523,53.479,22.567,13.793,15.043,20.69,34.61,20.69,58.697v1.368ZM1441.445,465.114c-3.526-16.175-10.004-28.349-19.435-36.523-9.433-8.174-21.728-12.263-36.887-12.263-14.104,0-26.046,4.394-35.829,13.18-9.783,8.788-15.778,20.656-17.98,35.606h110.131Z" fill="#141414"/>
      <path d="M1475.556,475.559c0-21.33,7.315-39.574,21.947-54.735,14.63-15.159,31.949-22.74,51.959-22.74,21.064,0,39.022,7.449,53.876,22.344,14.851,14.896,22.277,32.656,22.277,53.281,0,21.683-7.271,40.192-21.815,55.528-14.543,15.337-32.172,23.005-52.884,23.005-21.067,0-38.893-7.514-53.479-22.542-14.588-15.026-21.881-33.073-21.881-54.14ZM1495.123,475.294c0,16.748,5.332,30.785,15.998,42.109,10.663,11.327,23.93,16.989,39.795,16.989,15.601,0,28.689-5.662,39.267-16.989,10.577-11.325,15.865-25.451,15.865-42.374,0-17.188-5.354-31.312-16.063-42.374-10.709-11.06-24.307-16.592-40.787-16.592-14.808,0-27.522,5.685-38.143,17.055-10.622,11.37-15.932,25.43-15.932,42.175Z" fill="#141414"/>
      <path d="M1647.562,402.71h18.113v16.526c5.729-6.61,12.361-11.502,19.897-14.675,7.536-3.173,16.15-4.76,25.848-4.76,10.663,0,20.162,1.983,28.491,5.95s14.917,9.651,19.766,17.055c3.349,5.202,5.751,11.304,7.205,18.311s2.182,17.342,2.182,31.003v76.021h-18.377v-81.442c0-17.187-3.285-29.658-9.851-37.416-6.566-7.755-17.077-11.634-31.532-11.634-8.461,0-15.888,1.698-22.277,5.09-6.392,3.394-11.436,8.263-15.138,14.609-2.293,3.966-3.9,8.484-4.826,13.552-.925,5.069-1.388,13.905-1.388,26.508v70.733h-18.113v-145.432Z" fill="#141414"/>
    </g>
    <g>
      <path d="M1242.261,629.249h-4.902v-49.565h4.902v22.229h23.557v-22.229h4.868v49.565h-4.868v-22.604h-23.557v22.604Z" fill="#0887ff"/>
      <path d="M1319.706,601.913h20.833v4.902h-20.833v17.634h20.833v4.8h-25.735v-49.565h25.735v4.868h-20.833v17.361Z" fill="#0887ff"/>
      <path d="M1406.988,629.249h-22.331v-49.565h4.902v44.766h17.429v4.8Z" fill="#0887ff"/>
      <path d="M1447.703,579.684h10.52c3.018,0,5.435.159,7.251.477,1.815.318,3.324.829,4.527,1.532,2.179,1.316,3.852,3.024,5.021,5.123,1.169,2.1,1.754,4.466,1.754,7.098,0,2.497-.528,4.807-1.583,6.928-1.056,2.122-2.525,3.808-4.408,5.056-1.317.885-2.889,1.526-4.715,1.923-1.827.397-4.159.596-6.996.596h-6.502v20.834h-4.868v-49.565ZM1452.571,584.552v18.894h7.183c3.994,0,6.944-.76,8.852-2.281,1.906-1.52,2.859-3.869,2.859-7.046,0-3.313-.959-5.736-2.877-7.269-1.918-1.531-4.999-2.298-9.242-2.298h-6.774Z" fill="#0887ff"/>
      <path d="M1518.306,579.684h14.094c3.88,0,7.143.387,9.786,1.158s4.976,2.008,6.996,3.71c2.837,2.383,5.038,5.3,6.604,8.749,1.565,3.45,2.349,7.138,2.349,11.063,0,4.381-.863,8.369-2.587,11.966-1.726,3.598-4.165,6.531-7.319,8.8-2.088,1.476-4.347,2.531-6.774,3.166-2.429.636-6.173.953-11.233.953h-11.915v-49.565ZM1523.105,584.416v40.169h10.11c6.309,0,11.166-1.77,14.57-5.311,3.404-3.54,5.106-8.556,5.106-15.046,0-3.245-.579-6.241-1.736-8.987s-2.814-5.05-4.971-6.91c-1.611-1.407-3.415-2.411-5.412-3.013s-4.902-.902-8.715-.902h-8.953Z" fill="#0887ff"/>
      <path d="M1604.568,601.913h20.833v4.902h-20.833v17.634h20.833v4.8h-25.735v-49.565h25.735v4.868h-20.833v17.361Z" fill="#0887ff"/>
      <path d="M1666.864,615.088h4.697c.091,3.063.959,5.503,2.604,7.318,1.646,1.816,3.807,2.724,6.485,2.724,2.882,0,5.168-.902,6.859-2.706,1.69-1.805,2.536-4.25,2.536-7.336,0-4.494-3.473-7.887-10.417-10.179-.545-.182-.953-.317-1.226-.408-3.631-1.248-6.246-2.831-7.847-4.749-1.6-1.918-2.399-4.42-2.399-7.507,0-3.948,1.23-7.183,3.693-9.701,2.462-2.52,5.645-3.779,9.549-3.779,3.722,0,6.672,1.146,8.851,3.438,2.179,2.293,3.393,5.515,3.643,9.668h-4.596c-.25-2.7-1.056-4.783-2.417-6.247s-3.188-2.195-5.48-2.195c-2.451,0-4.454.8-6.009,2.399-1.555,1.601-2.332,3.638-2.332,6.111,0,1.293.232,2.411.698,3.353.465.942,1.208,1.799,2.229,2.57,1.044.771,3.041,1.634,5.991,2.587,1.702.545,2.996.987,3.881,1.328,3.223,1.248,5.543,2.843,6.962,4.783,1.418,1.94,2.128,4.487,2.128,7.642,0,4.812-1.312,8.687-3.933,11.626s-6.099,4.408-10.434,4.408c-4.04,0-7.319-1.39-9.838-4.17-2.52-2.78-3.812-6.439-3.881-10.979Z" fill="#0887ff"/>
      <path d="M1741.519,613.964v15.285h-4.8v-49.565h4.8v27.54l22.944-27.54h5.787l-20.017,23.966,19.677,25.6h-5.992l-16.816-21.957-5.583,6.672Z" fill="#0887ff"/>
    </g>
  </g>
</svg>