<svg width="19" height="26" viewBox="0 0 19 26" fill="none" xmlns="http://www.w3.org/2000/svg">
<path d="M8.44332 26C8.30565 25.9998 8.16906 25.9758 8.03965 25.9291C7.79002 25.8381 7.57829 25.6664 7.43836 25.4414C7.29844 25.2164 7.23842 24.9512 7.26792 24.6882L8.18212 16.3091H1.18907C0.973375 16.3095 0.761669 16.2513 0.576687 16.1409C0.391704 16.0305 0.240434 15.872 0.139122 15.6824C0.0378102 15.4929 -0.00971526 15.2795 0.00164951 15.0651C0.0130143 14.8507 0.0828401 14.6434 0.203628 14.4655L9.57124 0.520112C9.71939 0.301877 9.93654 0.13916 10.1882 0.0577981C10.4399 -0.0235644 10.7116 -0.0189096 10.9603 0.0710235C11.1994 0.159379 11.4036 0.322022 11.5426 0.534873C11.6816 0.747724 11.748 0.999469 11.7321 1.25284L10.8179 9.69098H17.8109C18.0266 9.69066 18.2383 9.74883 18.4233 9.85924C18.6083 9.96966 18.7596 10.1281 18.8609 10.3177C18.9622 10.5072 19.0097 10.7207 18.9984 10.9351C18.987 11.1495 18.9172 11.3567 18.7964 11.5346L9.42876 25.48C9.31985 25.6404 9.17303 25.7717 9.00121 25.8624C8.82938 25.953 8.6378 26.0003 8.44332 26ZM3.40927 13.9455H9.5C9.66568 13.9459 9.82944 13.9808 9.98075 14.048C10.1321 14.1151 10.2676 14.2131 10.3786 14.3355C10.4906 14.4596 10.575 14.6059 10.6262 14.7648C10.6773 14.9237 10.6941 15.0915 10.6754 15.2573L10.1411 20.1618L15.5907 12.0546H9.5C9.33246 12.0556 9.1666 12.0213 9.01333 11.954C8.86005 11.8866 8.72283 11.7877 8.61069 11.6638C8.49855 11.5399 8.41402 11.3938 8.36267 11.2351C8.31131 11.0763 8.29429 10.9086 8.31272 10.7428L8.847 5.83827L3.40927 13.9455Z" fill="#5F6465"/>
</svg>
