<svg width="26" height="26" viewBox="0 0 26 26" fill="none" xmlns="http://www.w3.org/2000/svg">
<g clip-path="url(#clip0_110_849)">
<path d="M19.5747 9.90891C19.695 9.97848 19.8261 10.0115 19.9555 10.0115C20.2186 10.0115 20.4745 9.87488 20.6157 9.63063C20.6848 9.51129 20.7178 9.38078 20.7183 9.2518C20.7188 8.98824 20.5822 8.73129 20.3374 8.59012C19.9733 8.37938 19.5077 8.50379 19.2969 8.86789C19.2279 8.98774 19.1948 9.11824 19.1943 9.24672C19.1938 9.51078 19.3304 9.76723 19.5747 9.90891Z" fill="white"/>
<path d="M12.7435 15.4504C12.5008 15.592 12.3657 15.8475 12.3662 16.1095C12.3662 16.2395 12.3997 16.3715 12.4703 16.4924C12.612 16.7346 12.8669 16.8697 13.1284 16.8697C13.2589 16.8697 13.3915 16.8362 13.5118 16.7656C13.7546 16.6239 13.8896 16.369 13.8896 16.1065C13.8896 15.9765 13.8561 15.8444 13.7855 15.7241C13.5733 15.3605 13.1071 15.2381 12.7435 15.4504Z" fill="white"/>
<path d="M14.9297 10.0255C15.0607 10.0255 15.1933 9.99197 15.3141 9.92088C15.5564 9.77869 15.6914 9.52326 15.6909 9.26123C15.6904 9.13123 15.6569 8.9992 15.5863 8.87834C15.3736 8.51576 14.9069 8.39388 14.5438 8.60666C14.3016 8.74834 14.1665 9.00377 14.167 9.2658C14.1675 9.3963 14.201 9.52834 14.2716 9.64869C14.4133 9.89091 14.6682 10.0255 14.9297 10.0255Z" fill="white"/>
<path d="M12.4503 14.3711C12.8693 14.3691 13.208 14.0293 13.209 13.6109V13.6063C13.207 13.1854 12.8647 12.8456 12.4442 12.8477C12.0248 12.8497 11.6866 13.1894 11.6855 13.6079V13.6124C11.6871 14.0324 12.0278 14.3711 12.4473 14.3711H12.4503Z" fill="white"/>
<path d="M17.4551 9.3418C17.8755 9.3418 18.2168 9.00055 18.2168 8.58008C18.2168 8.15961 17.8755 7.81836 17.4551 7.81836C17.0341 7.81836 16.6934 8.15961 16.6934 8.58008C16.6934 9.00105 17.0341 9.3418 17.4551 9.3418Z" fill="white"/>
<path d="M12.7281 11.7651C12.8475 11.8336 12.9775 11.8661 13.1059 11.8661C13.37 11.8661 13.627 11.7285 13.7676 11.4827C13.8362 11.3629 13.8687 11.2324 13.8687 11.1034C13.8682 10.8398 13.7305 10.5839 13.4853 10.4432C13.1202 10.234 12.6545 10.3605 12.4458 10.7256C12.3767 10.8454 12.3447 10.9759 12.3447 11.1049C12.3452 11.3685 12.4829 11.6249 12.7281 11.7651Z" fill="white"/>
<path d="M15.3457 17.2718C14.9805 17.0621 14.5149 17.1881 14.3057 17.5532C14.2366 17.6725 14.2041 17.803 14.2041 17.932C14.2041 18.1956 14.3417 18.452 14.5865 18.5932V18.5927C14.7063 18.6617 14.8368 18.6942 14.9653 18.6942C15.2294 18.6942 15.4858 18.5571 15.6265 18.3118C15.6955 18.192 15.728 18.0615 15.728 17.933C15.728 17.669 15.5904 17.4125 15.3457 17.2718Z" fill="white"/>
<path d="M22.1768 15.423C21.8121 15.2133 21.3465 15.3382 21.1363 15.7028C21.0672 15.8221 21.0347 15.9527 21.0342 16.0816C21.0342 16.3452 21.1708 16.6016 21.4161 16.7428C21.5359 16.8119 21.6664 16.8449 21.7954 16.8449C22.0589 16.8449 22.3149 16.7083 22.4561 16.4635C22.5251 16.3437 22.5576 16.2132 22.5581 16.0847C22.5581 15.8206 22.4215 15.5642 22.1768 15.423Z" fill="white"/>
<path d="M21.7901 11.8413C21.9201 11.8413 22.0511 11.8083 22.1714 11.7382C22.4147 11.597 22.5508 11.3426 22.5513 11.0801C22.5513 10.9501 22.5183 10.8181 22.4482 10.6972C22.237 10.3331 21.7708 10.2092 21.4072 10.4204C21.1639 10.5616 21.0279 10.8165 21.0273 11.0786C21.0273 11.2086 21.0604 11.3406 21.1304 11.4615C21.2716 11.7052 21.5275 11.8413 21.7901 11.8413Z" fill="white"/>
<path d="M22.4619 12.8184C22.0409 12.8189 21.7007 13.1601 21.7012 13.5811C21.7017 14.0011 22.0429 14.3418 22.4629 14.3418H22.4639C22.8849 14.3408 23.2251 13.9995 23.2246 13.5786C23.2241 13.1581 22.8823 12.8173 22.4619 12.8184Z" fill="white"/>
<path d="M17.4672 17.833C17.0467 17.834 16.7065 18.1763 16.708 18.5968C16.709 19.0167 17.0498 19.3564 17.4692 19.3564H17.4718C17.8922 19.3554 18.2325 19.0132 18.2315 18.5927C18.2299 18.1717 17.8882 17.832 17.4672 17.833Z" fill="white"/>
<path d="M19.5859 17.2603C19.3431 17.4015 19.2075 17.6564 19.207 17.9189C19.207 18.0489 19.2405 18.181 19.3106 18.3018C19.4523 18.5446 19.7077 18.6801 19.9698 18.6801C20.0998 18.6801 20.2318 18.6471 20.3521 18.5771C20.5949 18.4354 20.731 18.1805 20.731 17.9184C20.731 17.7879 20.6975 17.6559 20.6274 17.5355C20.4156 17.1719 19.9495 17.0485 19.5859 17.2603Z" fill="white"/>
<path d="M17.4552 20.6093C13.5835 20.6093 10.4336 17.4594 10.4336 13.5877C10.4336 9.71608 13.5835 6.56622 17.4552 6.56622C21.3268 6.56622 24.4767 9.71608 24.4767 13.5877C24.4767 17.4594 21.3268 20.6093 17.4552 20.6093ZM23.3017 7.36216L23.7099 6.95388L24.3677 7.6116C24.5164 7.76039 24.7114 7.83473 24.9063 7.83473C25.1012 7.83473 25.2962 7.76039 25.4449 7.6116C25.7424 7.31412 25.7424 6.83185 25.4449 6.53438L24.2497 5.33924C24.2493 5.33883 24.249 5.33838 24.2486 5.33797C24.2482 5.33756 24.2477 5.33721 24.2473 5.3368L23.0013 4.09078C22.7039 3.79331 22.2215 3.79331 21.9241 4.09078C21.6266 4.38826 21.6266 4.87053 21.9241 5.16801L22.6327 5.87666L22.0943 6.41509C20.7574 5.54744 19.1642 5.04278 17.4552 5.04278C15.7461 5.04278 14.1529 5.54744 12.816 6.41514L12.2776 5.87666L12.9862 5.16801C13.2836 4.87053 13.2836 4.38826 12.9862 4.09078C12.6887 3.79331 12.2064 3.79331 11.9089 4.09078L10.6631 5.3367C10.6626 5.33716 10.6621 5.33751 10.6617 5.33797C10.6612 5.33843 10.6608 5.33894 10.6604 5.33939L9.4654 6.53438C9.16792 6.83185 9.16792 7.31417 9.4654 7.6116C9.61409 7.76039 9.80903 7.83473 10.004 7.83473C10.1989 7.83473 10.3939 7.76039 10.5426 7.6116L11.2003 6.95393L11.6086 7.36221C9.94868 8.92196 8.91016 11.1357 8.91016 13.5877C8.91016 18.2994 12.7434 22.1327 17.4552 22.1327C22.1669 22.1327 26.0001 18.2994 26.0001 13.5877C26.0001 11.1357 24.9616 8.92196 23.3017 7.36216Z" fill="white"/>
<path d="M17.6777 14.9846L19.3952 13.2672C19.6928 12.9697 19.6928 12.4874 19.3953 12.1899C19.0979 11.8924 18.6155 11.8924 18.3181 12.1899L17.1391 13.3688L16.5913 12.8211C16.2938 12.5237 15.8115 12.5237 15.5141 12.8212C15.2166 13.1187 15.2166 13.601 15.5142 13.8984L16.6005 14.9846C16.7492 15.1333 16.9442 15.2077 17.1391 15.2077C17.334 15.2077 17.5289 15.1333 17.6777 14.9846Z" fill="white"/>
<path d="M7.05719 6.9458H4.92285C4.50218 6.9458 4.16113 7.28685 4.16113 7.70752C4.16113 8.12819 4.50218 8.46924 4.92285 8.46924H7.05719C7.47786 8.46924 7.81891 8.12819 7.81891 7.70752C7.81891 7.28685 7.47786 6.9458 7.05719 6.9458Z" fill="white"/>
<path d="M7.05832 9.88525H4.12891C3.70823 9.88525 3.36719 10.2263 3.36719 10.647C3.36719 11.0676 3.70823 11.4087 4.12891 11.4087H7.05832C7.479 11.4087 7.82004 11.0676 7.82004 10.647C7.82004 10.2263 7.479 9.88525 7.05832 9.88525Z" fill="white"/>
<path d="M7.05735 12.8262H2.8418C2.42112 12.8262 2.08008 13.1672 2.08008 13.5879C2.08008 14.0086 2.42112 14.3496 2.8418 14.3496H7.05735C7.47802 14.3496 7.81907 14.0086 7.81907 13.5879C7.81907 13.1672 7.47802 12.8262 7.05735 12.8262Z" fill="white"/>
<path d="M7.05812 15.7654H1.79297C1.3723 15.7654 1.03125 16.1064 1.03125 16.5271C1.03125 16.9478 1.3723 17.2888 1.79297 17.2888H7.05812C7.47879 17.2888 7.81984 16.9478 7.81984 16.5271C7.81984 16.1064 7.47879 15.7654 7.05812 15.7654Z" fill="white"/>
<path d="M7.05768 18.7058H0.761718C0.341046 18.7058 0 19.0469 0 19.4675C0 19.8882 0.341046 20.2292 0.761718 20.2292H7.05768C7.47835 20.2292 7.8194 19.8882 7.8194 19.4675C7.8194 19.0469 7.47835 18.7058 7.05768 18.7058Z" fill="white"/>
</g>
<defs>
<clipPath id="clip0_110_849">
<rect width="26" height="26" fill="white"/>
</clipPath>
</defs>
</svg>
