<svg width="26" height="25" viewBox="0 0 26 25" fill="none" xmlns="http://www.w3.org/2000/svg">
<path d="M21.25 5.31055H4.75C3.51248 5.31055 2.5 6.32303 2.5 7.56055V18.0605C2.5 19.298 3.51248 20.3105 4.75 20.3105H18.535C18.475 20.123 18.4375 19.928 18.4225 19.7255C17.245 19.6505 16.3075 18.683 16.3075 17.4905C16.3075 16.298 17.245 15.3305 18.4225 15.2556C18.49 14.078 19.4575 13.1481 20.6575 13.1481C21.85 13.1481 22.8175 14.078 22.8925 15.2556C23.1025 15.2705 23.305 15.308 23.5 15.383V7.56055C23.5 6.32303 22.4875 5.31055 21.25 5.31055ZM8.125 17.6855H5.875C5.46251 17.6855 5.125 17.348 5.125 16.9355C5.125 16.5231 5.46251 16.1855 5.875 16.1855H8.125C8.53749 16.1855 8.875 16.5231 8.875 16.9355C8.875 17.348 8.53749 17.6855 8.125 17.6855ZM5.125 14.3105C5.125 13.8981 5.46251 13.5605 5.875 13.5605H7C7.41249 13.5605 7.75 13.8981 7.75 14.3105C7.75 14.723 7.41249 15.0605 7 15.0605H5.875C5.46251 15.0605 5.125 14.723 5.125 14.3105ZM20.125 10.9355H5.875C5.46251 10.9355 5.125 10.598 5.125 10.1855C5.125 9.77306 5.46251 9.43555 5.875 9.43555H20.125C20.5375 9.43555 20.875 9.77306 20.875 10.1855C20.875 10.598 20.5375 10.9355 20.125 10.9355Z" fill="#4B5563"/>
<path d="M22.7498 16.7397H21.4047V15.395C21.4047 14.9805 21.0688 14.645 20.6547 14.645C20.2405 14.645 19.9047 14.9805 19.9047 15.395V16.7397H18.5596C18.1454 16.7397 17.8096 17.0752 17.8096 17.4897C17.8096 17.9043 18.1454 18.2397 18.5596 18.2397H19.9047V19.5852C19.9047 19.9998 20.2405 20.3352 20.6547 20.3352C21.0688 20.3352 21.4047 19.9998 21.4047 19.5852V18.2397H22.7498C23.1639 18.2397 23.4998 17.9043 23.4998 17.4897C23.4998 17.0752 23.1639 16.7397 22.7498 16.7397Z" fill="#4B5563"/>
</svg>
