<svg width="25" height="25" viewBox="0 0 25 25" fill="none" xmlns="http://www.w3.org/2000/svg">
<path d="M11.1934 7C11.1934 4.92893 9.51443 3.25 7.44336 3.25C5.37229 3.25 3.69336 4.92893 3.69336 7C3.69336 9.07107 5.37229 10.75 7.44336 10.75C9.51443 10.75 11.1934 9.07107 11.1934 7Z" stroke="black" stroke-width="1.5" stroke-linecap="round" stroke-linejoin="round"/>
<path d="M21.6934 17.5C21.6934 15.4289 20.0145 13.75 17.9434 13.75C15.8723 13.75 14.1934 15.4289 14.1934 17.5C14.1934 19.5711 15.8723 21.25 17.9434 21.25C20.0145 21.25 21.6934 19.5711 21.6934 17.5Z" stroke="black" stroke-width="1.5" stroke-linecap="round" stroke-linejoin="round"/>
<path d="M11.1934 17.5C11.1934 15.4289 9.51443 13.75 7.44336 13.75C5.37229 13.75 3.69336 15.4289 3.69336 17.5C3.69336 19.5711 5.37229 21.25 7.44336 21.25C9.51443 21.25 11.1934 19.5711 11.1934 17.5Z" stroke="black" stroke-width="1.5" stroke-linecap="round" stroke-linejoin="round"/>
<path d="M17.9434 3.25V10.75M21.6934 7H14.1934" stroke="black" stroke-width="1.5" stroke-linecap="round" stroke-linejoin="round"/>
</svg>
