<svg width="25" height="25" viewBox="0 0 25 25" fill="none" xmlns="http://www.w3.org/2000/svg">
<path d="M7.69336 2.75C6.28605 2.91536 5.31763 3.26488 4.5846 4.00363C3.19336 5.40575 3.19336 7.66242 3.19336 12.1758C3.19336 16.6891 3.19336 18.9458 4.5846 20.3479C5.97585 21.75 8.21502 21.75 12.6934 21.75C17.1717 21.75 19.4109 21.75 20.8022 20.3479C22.1934 18.9458 22.1934 16.6891 22.1934 12.1758C22.1934 7.66242 22.1934 5.40575 20.8022 4.00363C20.0691 3.26488 19.1007 2.91536 17.6934 2.75" stroke="#5F6465" stroke-width="1.5" stroke-linecap="round" stroke-linejoin="round"/>
<path d="M10.1934 8.25C10.6849 8.7557 11.9932 10.75 12.6934 10.75M12.6934 10.75C13.3936 10.75 14.7019 8.7557 15.1934 8.25M12.6934 10.75V2.75" stroke="#5F6465" stroke-width="1.5" stroke-linecap="round" stroke-linejoin="round"/>
<path d="M22.1934 13.75H17.2677C16.4256 13.75 15.764 14.4536 15.3929 15.1972C14.9897 16.0051 14.1823 16.75 12.6934 16.75C11.2045 16.75 10.3971 16.0051 9.9939 15.1972C9.62278 14.4536 8.96113 13.75 8.11902 13.75H3.19336" stroke="#5F6465" stroke-width="1.5" stroke-linejoin="round"/>
</svg>
