<svg width="20" height="20" viewBox="0 0 20 20" fill="none" xmlns="http://www.w3.org/2000/svg">
<path d="M1.89941 0.5H14.0811L12.4971 2.08398L12.4824 2.10156C12.3605 2.24787 12.1358 2.34863 11.8691 2.34863H3.56055C2.90467 2.34879 2.34863 2.90566 2.34863 3.56152V16.3809C2.34863 17.0367 2.90467 17.5926 3.56055 17.5928H16.3799C17.0358 17.5927 17.5918 17.0368 17.5918 16.3809V8.11914C17.5918 7.91039 17.6555 7.72505 17.8037 7.5498L17.873 7.47559L17.8779 7.4707L19.4404 5.86133V18.043C19.4403 18.8114 18.8093 19.4424 18.041 19.4424H1.89941C1.13114 19.4424 0.500092 18.8114 0.5 18.043V1.89941C0.5 1.13094 1.13108 0.5 1.89941 0.5Z" fill="#5F6465" stroke="#5F6465"/>
<path d="M6.50286 11.9654L8.25953 13.7222C8.35448 13.8171 8.44944 13.8171 8.54439 13.7222L17.7551 4.27343C17.85 4.17847 17.85 4.08351 17.7551 3.98855L16.0459 2.27923C15.9509 2.18427 15.8559 2.18427 15.761 2.27923L6.50286 11.6805C6.4079 11.7754 6.4079 11.8704 6.50286 11.9654Z" fill="#5F6465"/>
<path d="M16.5693 1.47183C16.4743 1.56679 16.4743 1.66175 16.5693 1.75671L18.2785 3.46603C18.3734 3.56099 18.4684 3.56099 18.5633 3.46603L19.7503 2.27901C20.0826 1.99412 20.0826 1.51931 19.7503 1.18694L18.8957 0.332283C18.5633 -8.40202e-05 18.0885 -8.40202e-05 17.7562 0.332283C17.7087 0.332283 16.5693 1.47183 16.5693 1.47183Z" fill="#5F6465"/>
<path d="M4.93902 14.9082C4.89154 15.0981 5.08145 15.288 5.27136 15.2405C5.55623 15.1456 5.88857 15.0981 6.17344 15.0031C6.41083 14.9557 6.64821 14.9082 6.8856 14.8132C7.12299 14.7657 7.36038 14.7183 7.55029 14.6233C7.64524 14.5758 7.83515 14.3859 7.69272 14.2434L5.88857 12.4392C5.74614 12.2967 5.60371 12.4392 5.55623 12.5341C5.4138 12.7241 5.36632 13.0089 5.31884 13.1989C5.27136 13.4363 5.17641 13.6737 5.12893 13.9111C5.08145 14.3384 5.03397 14.6233 4.93902 14.9082Z" fill="#5F6465"/>
</svg>
