<svg width="29" height="28" viewBox="0 0 29 28" fill="none" xmlns="http://www.w3.org/2000/svg">
<path d="M23.554 19.8337H23.3394C23.4775 19.4601 23.5502 19.0654 23.554 18.667V12.8337C23.5501 10.7667 22.8609 8.75938 21.5942 7.12601C20.3275 5.49264 18.555 4.32544 16.554 3.80715V3.50032C16.554 2.88148 16.3082 2.28799 15.8706 1.8504C15.433 1.41282 14.8395 1.16699 14.2207 1.16699C13.6019 1.16699 13.0084 1.41282 12.5708 1.8504C12.1332 2.28799 11.8874 2.88148 11.8874 3.50032V3.80715C9.88644 4.32544 8.11387 5.49264 6.8472 7.12601C5.58053 8.75938 4.89128 10.7667 4.88737 12.8337V18.667C4.89123 19.0654 4.96386 19.4601 5.10203 19.8337H4.88737C4.57795 19.8337 4.2812 19.9566 4.06241 20.1754C3.84362 20.3942 3.7207 20.6909 3.7207 21.0004C3.7207 21.3098 3.84362 21.6065 4.06241 21.8253C4.2812 22.0441 4.57795 22.167 4.88737 22.167H23.554C23.8635 22.167 24.1602 22.0441 24.379 21.8253C24.5978 21.6065 24.7207 21.3098 24.7207 21.0004C24.7207 20.6909 24.5978 20.3942 24.379 20.1754C24.1602 19.9566 23.8635 19.8337 23.554 19.8337Z" fill="#67636D"/>
<path d="M10.2031 24.5C10.6075 25.2088 11.1922 25.7981 11.8979 26.2079C12.6035 26.6178 13.4051 26.8337 14.2211 26.8337C15.0372 26.8337 15.8387 26.6178 16.5444 26.2079C17.2501 25.7981 17.8348 25.2088 18.2391 24.5H10.2031Z" fill="#67636D"/>
</svg>
