<svg width="25" height="25" viewBox="0 0 25 25" fill="none" xmlns="http://www.w3.org/2000/svg">
<path d="M2.58687 11.9327C2.64361 11.7957 2.73971 11.6785 2.86303 11.5961C2.98635 11.5137 3.13135 11.4697 3.27968 11.4696L7.02968 11.4696L7.02968 3.96962C7.02968 3.5718 7.18772 3.19027 7.46902 2.90896C7.75033 2.62766 8.13186 2.46962 8.52968 2.46962L16.0297 2.46962C16.4275 2.46962 16.809 2.62766 17.0903 2.90897C17.3716 3.19027 17.5297 3.5718 17.5297 3.96963L17.5297 11.4696L21.2797 11.4696C21.4281 11.4695 21.5732 11.5134 21.6967 11.5958C21.8201 11.6782 21.9163 11.7954 21.9732 11.9325C22.03 12.0696 22.0448 12.2205 22.0158 12.3661C21.9868 12.5117 21.9153 12.6454 21.8103 12.7502L12.8103 21.7502C12.7407 21.82 12.6579 21.8753 12.5669 21.913C12.4758 21.9508 12.3782 21.9702 12.2797 21.9702C12.1811 21.9702 12.0835 21.9508 11.9925 21.913C11.9014 21.8753 11.8187 21.82 11.7491 21.7502L2.74906 12.7502C2.6442 12.6453 2.57283 12.5116 2.54396 12.3661C2.51509 12.2206 2.53002 12.0698 2.58687 11.9327Z" fill="#4B5563"/>
</svg>
