<svg width="25" height="27" viewBox="0 0 25 27" fill="none" xmlns="http://www.w3.org/2000/svg">
<g clip-path="url(#clip0_55_830)">
<path d="M21.0938 5.49805H3.90625C2.61717 5.49805 1.5625 6.55272 1.5625 7.8418V18.7793C1.5625 20.0683 2.61717 21.123 3.90625 21.123H18.2656C18.2031 20.9277 18.1641 20.7246 18.1484 20.5136C16.9219 20.4355 15.9453 19.4277 15.9453 18.1855C15.9453 16.9433 16.9219 15.9355 18.1484 15.8574C18.2188 14.6309 19.2266 13.6621 20.4766 13.6621C21.7187 13.6621 22.7266 14.6309 22.8047 15.8574C23.0234 15.873 23.2344 15.9121 23.4375 15.9902V7.8418C23.4375 6.55272 22.3828 5.49805 21.0938 5.49805ZM7.42188 18.3887H5.07812C4.64845 18.3887 4.29688 18.0371 4.29688 17.6074C4.29688 17.1777 4.64845 16.8262 5.07812 16.8262H7.42188C7.85155 16.8262 8.20312 17.1777 8.20312 17.6074C8.20312 18.0371 7.85155 18.3887 7.42188 18.3887ZM4.29688 14.873C4.29688 14.4434 4.64845 14.0918 5.07812 14.0918H6.25C6.67968 14.0918 7.03125 14.4434 7.03125 14.873C7.03125 15.3027 6.67968 15.6543 6.25 15.6543H5.07812C4.64845 15.6543 4.29688 15.3027 4.29688 14.873ZM19.9219 11.3574H5.07812C4.64845 11.3574 4.29688 11.0058 4.29688 10.5762C4.29688 10.1465 4.64845 9.79492 5.07812 9.79492H19.9219C20.3516 9.79492 20.7031 10.1465 20.7031 10.5762C20.7031 11.0058 20.3516 11.3574 19.9219 11.3574Z" fill="#4B5563"/>
<path fill-rule="evenodd" clip-rule="evenodd" d="M22.7207 17.2599C22.7779 17.3206 22.8226 17.392 22.8522 17.4699C22.8818 17.5478 22.8958 17.6309 22.8933 17.7142C22.8908 17.7975 22.8719 17.8796 22.8377 17.9556C22.8035 18.0317 22.7547 18.1002 22.694 18.1574L19.7934 20.8908C19.6722 21.005 19.5109 21.067 19.3445 21.0634C19.178 21.0598 19.0195 20.991 18.9034 20.8716L17.6799 19.6148C17.5625 19.4942 17.4978 19.3318 17.5001 19.1635C17.5023 18.9951 17.5714 18.8346 17.692 18.7172C17.8127 18.5997 17.975 18.535 18.1434 18.5373C18.3117 18.5396 18.4722 18.6086 18.5897 18.7293L19.3774 19.5384L21.8237 17.2334C21.9462 17.1179 22.1095 17.0558 22.2778 17.0608C22.4461 17.0658 22.6055 17.1374 22.7209 17.2599" fill="#4B5563"/>
</g>
<defs>
<clipPath id="clip0_55_830">
<rect width="25" height="25" fill="white" transform="translate(0 0.810547)"/>
</clipPath>
</defs>
</svg>
