<svg width="25" height="25" viewBox="0 0 25 25" fill="none" xmlns="http://www.w3.org/2000/svg">
<path d="M22.6929 9.12895C22.626 7.58687 22.4385 6.58298 21.9132 5.78884C21.611 5.33196 21.2357 4.93459 20.8041 4.61468C19.6376 3.75 17.9919 3.75 14.7007 3.75H10.686C7.39472 3.75 5.74908 3.75 4.58256 4.61468C4.15099 4.93459 3.77561 5.33196 3.47341 5.78884C2.9482 6.58289 2.7607 7.58665 2.69377 9.12843C2.68232 9.39208 2.90942 9.59375 3.15825 9.59375C4.54403 9.59375 5.66743 10.783 5.66743 12.25C5.66743 13.717 4.54403 14.9062 3.15825 14.9062C2.90942 14.9062 2.68232 15.1079 2.69377 15.3716C2.7607 16.9134 2.9482 17.9171 3.47341 18.7112C3.77561 19.168 4.15099 19.5654 4.58256 19.8853C5.74908 20.75 7.39472 20.75 10.686 20.75H14.7007C17.9919 20.75 19.6376 20.75 20.8041 19.8853C21.2357 19.5654 21.611 19.168 21.9132 18.7112C22.4385 17.917 22.626 16.9131 22.6929 15.3711V9.12895Z" stroke="#5F6465" stroke-width="1.5" stroke-linejoin="round"/>
<path d="M13.6934 12.25H17.6934" stroke="#5F6465" stroke-width="1.5" stroke-linecap="round" stroke-linejoin="round"/>
<path d="M9.69336 16.25H17.6934" stroke="#5F6465" stroke-width="1.5" stroke-linecap="round" stroke-linejoin="round"/>
</svg>
