<svg width="25" height="25" viewBox="0 0 25 25" fill="none" xmlns="http://www.w3.org/2000/svg">
<path d="M21.25 4.5H4.75C3.51248 4.5 2.5 5.51248 2.5 6.75V17.25C2.5 18.4875 3.51248 19.5 4.75 19.5H18.535C18.475 19.3125 18.4375 19.1175 18.4225 18.915C17.245 18.84 16.3075 17.8725 16.3075 16.68C16.3075 15.4875 17.245 14.52 18.4225 14.445C18.49 13.2675 19.4575 12.3375 20.6575 12.3375C21.85 12.3375 22.8175 13.2675 22.8925 14.445C23.1025 14.46 23.305 14.4975 23.5 14.5725V6.75C23.5 5.51248 22.4875 4.5 21.25 4.5ZM8.125 16.875H5.875C5.46251 16.875 5.125 16.5375 5.125 16.125C5.125 15.7125 5.46251 15.375 5.875 15.375H8.125C8.53749 15.375 8.875 15.7125 8.875 16.125C8.875 16.5375 8.53749 16.875 8.125 16.875ZM5.125 13.5C5.125 13.0875 5.46251 12.75 5.875 12.75H7C7.41249 12.75 7.75 13.0875 7.75 13.5C7.75 13.9125 7.41249 14.25 7 14.25H5.875C5.46251 14.25 5.125 13.9125 5.125 13.5ZM20.125 10.125H5.875C5.46251 10.125 5.125 9.78749 5.125 9.375C5.125 8.96251 5.46251 8.625 5.875 8.625H20.125C20.5375 8.625 20.875 8.96251 20.875 9.375C20.875 9.78749 20.5375 10.125 20.125 10.125Z" fill="white"/>
<path d="M22.7498 15.9292H21.4047V14.5845C21.4047 14.1699 21.0688 13.8345 20.6547 13.8345C20.2405 13.8345 19.9047 14.1699 19.9047 14.5845V15.9292H18.5596C18.1454 15.9292 17.8096 16.2646 17.8096 16.6792C17.8096 17.0938 18.1454 17.4292 18.5596 17.4292H19.9047V18.7747C19.9047 19.1892 20.2405 19.5247 20.6547 19.5247C21.0688 19.5247 21.4047 19.1892 21.4047 18.7747V17.4292H22.7498C23.1639 17.4292 23.4998 17.0938 23.4998 16.6792C23.4998 16.2646 23.1639 15.9292 22.7498 15.9292Z" fill="white"/>
</svg>
