<svg width="25" height="26" viewBox="0 0 25 26" fill="none" xmlns="http://www.w3.org/2000/svg">
<g clip-path="url(#clip0_55_623)">
<path d="M21.0938 4.6875H3.90625C2.61717 4.6875 1.5625 5.74217 1.5625 7.03125V17.9688C1.5625 19.2578 2.61717 20.3125 3.90625 20.3125H18.2656C18.2031 20.1172 18.1641 19.9141 18.1484 19.7031C16.9219 19.625 15.9453 18.6172 15.9453 17.375C15.9453 16.1328 16.9219 15.125 18.1484 15.0469C18.2188 13.8203 19.2266 12.8516 20.4766 12.8516C21.7187 12.8516 22.7266 13.8203 22.8047 15.0469C23.0234 15.0625 23.2344 15.1015 23.4375 15.1797V7.03125C23.4375 5.74217 22.3828 4.6875 21.0938 4.6875ZM7.42188 17.5781H5.07812C4.64845 17.5781 4.29688 17.2266 4.29688 16.7969C4.29688 16.3672 4.64845 16.0156 5.07812 16.0156H7.42188C7.85155 16.0156 8.20312 16.3672 8.20312 16.7969C8.20312 17.2266 7.85155 17.5781 7.42188 17.5781ZM4.29688 14.0625C4.29688 13.6328 4.64845 13.2812 5.07812 13.2812H6.25C6.67968 13.2812 7.03125 13.6328 7.03125 14.0625C7.03125 14.4922 6.67968 14.8438 6.25 14.8438H5.07812C4.64845 14.8438 4.29688 14.4922 4.29688 14.0625ZM19.9219 10.5469H5.07812C4.64845 10.5469 4.29688 10.1953 4.29688 9.76562C4.29688 9.33595 4.64845 8.98438 5.07812 8.98438H19.9219C20.3516 8.98438 20.7031 9.33595 20.7031 9.76562C20.7031 10.1953 20.3516 10.5469 19.9219 10.5469Z" fill="white"/>
<path fill-rule="evenodd" clip-rule="evenodd" d="M22.7207 16.4494C22.7779 16.5101 22.8226 16.5814 22.8522 16.6594C22.8818 16.7373 22.8958 16.8203 22.8933 16.9037C22.8908 16.987 22.8719 17.069 22.8377 17.1451C22.8035 17.2211 22.7547 17.2897 22.694 17.3468L19.7934 20.0802C19.6722 20.1944 19.5109 20.2564 19.3445 20.2529C19.178 20.2493 19.0195 20.1804 18.9034 20.0611L17.6799 18.8043C17.5625 18.6836 17.4978 18.5213 17.5001 18.3529C17.5023 18.1846 17.5714 18.024 17.692 17.9066C17.8127 17.7892 17.975 17.7245 18.1434 17.7267C18.3117 17.729 18.4722 17.7981 18.5897 17.9187L19.3774 18.7279L21.8237 16.4228C21.9462 16.3074 22.1095 16.2453 22.2778 16.2503C22.4461 16.2553 22.6055 16.3269 22.7209 16.4494" fill="white"/>
</g>
<defs>
<clipPath id="clip0_55_623">
<rect width="25" height="25" fill="white"/>
</clipPath>
</defs>
</svg>
