<svg width="21" height="21" viewBox="0 0 21 21" fill="none" xmlns="http://www.w3.org/2000/svg">
<path d="M13 12.0898C14.3261 12.0898 15.5979 12.6166 16.5355 13.5543C17.4732 14.492 18 15.7638 18 17.0898V18.0898C18 18.6203 17.7893 19.129 17.4142 19.5041C17.0391 19.8791 16.5304 20.0898 16 20.0898H2C1.46957 20.0898 0.960859 19.8791 0.585786 19.5041C0.210714 19.129 0 18.6203 0 18.0898V17.0898C0 15.7638 0.526784 14.492 1.46447 13.5543C2.40215 12.6166 3.67392 12.0898 5 12.0898H13ZM18.414 7.17084C18.5935 6.98959 18.8356 6.88381 19.0905 6.87516C19.3455 6.86651 19.5942 6.95564 19.7856 7.12431C19.977 7.29298 20.0967 7.52843 20.1202 7.78247C20.1437 8.03651 20.0692 8.28992 19.912 8.49084L19.828 8.58584L17 11.4138C16.8278 11.586 16.5987 11.6895 16.3557 11.7047C16.1127 11.72 15.8724 11.6461 15.68 11.4968L15.586 11.4138L14.172 9.99984C13.9907 9.8203 13.885 9.57827 13.8763 9.3233C13.8677 9.06832 13.9568 8.81968 14.1255 8.62826C14.2941 8.43685 14.5296 8.31714 14.7836 8.29364C15.0377 8.27014 15.2911 8.34462 15.492 8.50184L15.586 8.58584L16.293 9.29284L18.414 7.17084ZM9 0.0898438C10.3261 0.0898438 11.5979 0.616628 12.5355 1.55431C13.4732 2.49199 14 3.76376 14 5.08984C14 6.41593 13.4732 7.6877 12.5355 8.62538C11.5979 9.56306 10.3261 10.0898 9 10.0898C7.67392 10.0898 6.40215 9.56306 5.46447 8.62538C4.52678 7.6877 4 6.41593 4 5.08984C4 3.76376 4.52678 2.49199 5.46447 1.55431C6.40215 0.616628 7.67392 0.0898438 9 0.0898438Z" fill="white"/>
</svg>
